<svg width="200" height="50" viewBox="0 0 672 164" fill="none" xmlns="http://www.w3.org/2000/svg">
<path d="M188.4 132.5C180.8 132.5 174.7 130.1 170.3 125.4V131.2H156.6V44.7996L170.3 40.4996V74.7996C174.8 70.0996 180.8 67.7996 188.4 67.7996C197.4 67.7996 204.9 70.9996 210.7 77.2996C222.4 90.2996 222.4 110 210.7 123.1C204.9 129.3 197.4 132.4 188.4 132.5ZM186.9 120C192 120.1 196.8 118 200.2 114.2C207.2 106.1 207.2 94.0996 200.2 85.9996C196.8 82.1996 192 80.0996 186.9 80.1996C180.2 79.9996 173.9 83.1996 170.2 88.7996V111.3C174.1 117.1 179.7 120 186.9 120ZM239.1 57.9996C236.7 57.9996 234.4 57.0996 232.7 55.2996C230.9 53.5996 230 51.1996 230 48.7996C230 43.7996 234.1 39.7996 239.1 39.6996C241.6 39.6996 243.9 40.5996 245.6 42.3996C247.3 44.0996 248.3 46.3996 248.3 48.7996C248.3 53.7996 244.3 57.9996 239.3 57.9996C239.2 57.9996 239.2 57.9996 239.1 57.9996ZM232.3 131.2H246V68.9996H232.3V131.2ZM292.6 131.9C286.2 131.9 281 130.1 277 126.6C273 123.1 271 118 271 111.2V81.1996H255.6V68.9996H271V55.2996L284.6 50.8996V68.8996H303.6V81.0996H284.6V109C284.6 116 287.8 119.6 294.3 119.6C297.4 119.7 300.4 118.9 303.1 117.4L307.2 128.8C302.7 130.9 297.6 132 292.6 131.9ZM316.3 159.7V69.0996H330V74.7996C334.5 70.0996 340.5 67.7996 348.1 67.7996C357.1 67.7996 364.6 70.8996 370.4 77.2996C382.1 90.2996 382.1 110 370.4 123.1C364.5 129.4 357.1 132.6 348.1 132.6C340.5 132.6 334.4 130.2 329.9 125.5V155.5L316.3 159.7ZM346.7 120C351.8 120.1 356.6 118 360 114.2C367 106.1 367 94.0996 360 85.9996C356.6 82.1996 351.8 80.0996 346.7 80.1996C340 79.9996 333.7 83.1996 330 88.7996V111.3C333.9 117.1 339.4 120 346.7 120ZM418.7 132.4C409.7 132.4 402.2 129.3 396.4 122.9C384.8 109.9 384.8 90.1996 396.4 77.0996C402.2 70.7996 409.6 67.6996 418.7 67.5996C426.3 67.5996 432.4 69.8996 436.8 74.5996V68.8996H450.5V131.1H436.8V125.2C432.3 130.1 426.3 132.5 418.7 132.4ZM420.2 120C426.9 120.2 433.2 116.9 436.7 111.3V88.7996C433.1 83.2996 426.8 79.9996 420.2 80.1996C415.1 80.0996 410.3 82.1996 407 85.9996C400 94.0996 400 106.1 407 114.2C410.4 118 415.2 120.1 420.2 120ZM465.3 131.2V69.0996H479V75.6996C483.2 70.4996 489.3 67.8996 497.3 67.8996C504.7 67.8996 510.6 70.2996 515 74.9996C519.4 79.6996 521.6 86.0996 521.6 93.9996V131.2H507.9V96.2996C507.9 91.1996 506.7 87.2996 504.4 84.4996C502 81.6996 498.7 80.2996 494.3 80.2996C487 80.2996 481.9 83.5996 479 90.0996V131.2H465.3ZM564.5 132.4C555.5 132.4 548 129.3 542.3 122.9C530.7 109.9 530.7 90.1996 542.3 77.0996C548.1 70.7996 555.5 67.6996 564.5 67.5996C572.1 67.5996 578.2 69.8996 582.7 74.5996V44.5996L596.4 40.2996V131.1H582.7V125.2C578.1 130.1 572.1 132.5 564.5 132.4ZM566.1 120C572.8 120.2 579.1 116.9 582.6 111.3V88.7996C579 83.2996 572.7 79.9996 566.1 80.1996C561 80.0996 556.2 82.1996 552.8 85.9996C545.8 94.0996 545.8 106.1 552.8 114.2C556.1 118 561 120.1 566.1 120ZM640.2 132.4C631.2 132.4 623.8 129.3 618 122.9C606.4 109.9 606.4 90.1996 618 77.0996C623.8 70.7996 631.2 67.6996 640.2 67.5996C647.8 67.5996 653.9 69.8996 658.4 74.5996V68.8996H672V131.1H658.3V125.2C653.9 130.1 647.8 132.5 640.2 132.4ZM641.8 120C648.5 120.2 654.8 116.9 658.3 111.3V88.7996C654.7 83.2996 648.4 79.9996 641.8 80.1996C636.7 80.0996 631.9 82.1996 628.5 85.9996C621.5 94.0996 621.5 106.1 628.5 114.2C631.8 118 636.7 120.1 641.8 120ZM74.3 31.8996L71.6 32.7996V42.8996C71.6 47.9996 68.3 52.4996 63.5 54.0996L35.8 62.7996V77.7996L72.1 66.2996C80.7 63.5996 85.9 56.1996 85.9 46.3996V39.6996C85.9 35.1996 80.6 29.8996 74.3 31.8996ZM16.4 27.6996L67.8 11.4996C71.9 10.0996 76.3 9.6996 80.6 10.0996L74.2 5.39959C67.4 0.699589 58.9 -0.700402 51 1.7996L2.20001 17.1996L16.4 27.6996Z" fill="white"/>
<path d="M94.7 72.1002C94.7 72.1002 103.8 63.9002 103.8 46.2002V38.7002C103.8 27.0002 90.4 8.10022 68.9 14.9002L17.9 31.0002V125.5L32.2 121V97.7002L78.2 83.2002C84.5 81.1002 91.3 84.6002 93.3 90.9002C93.7 92.1002 93.9 93.4002 93.9 94.7002V103.9C93.9 113.3 85.6 126.6 72.6 130.7L2.09998 153L16.4 163.5L79.9 143.5C93.3 139.2 108.2 127.7 108.2 103.3V93.9002C108.2 79.1002 94.7 72.2002 94.7 72.1002ZM73.2 69.9002L32.2 82.8002V41.5002L73.2 28.6002C81.8 25.9002 89.5 32.8002 89.5 39.8002V46.5002C89.5 58.2002 83.1 66.7002 73.2 69.9002Z" fill="white"/>
<path d="M90.4 104V94.8C90.4 90.1 86.6 86.3 81.9 86.3C81 86.3 80.1 86.4 79.3 86.7L76.1 87.7V100.4C76.1 106.7 72.1 112.2 66.1 114L14.4 130.3V30.5L0 20V149.8L71.6 127.2C82.8 123.8 90.4 112.4 90.4 104Z" fill="white"/>
</svg>
