<svg width="170" height="66" viewBox="0 0 170 66" fill="none" xmlns="http://www.w3.org/2000/svg">
<g opacity="0.8">
<path d="M41.7336 38.8623C41.4073 38.8623 41.1766 38.7943 41.0415 38.6586C40.9177 38.5228 40.8558 38.3078 40.8558 38.0136V28.1867C40.8558 27.8925 40.9233 27.6775 41.0584 27.5417C41.1935 27.3946 41.4185 27.3211 41.7336 27.3211H45.8692C47.4447 27.3211 48.6037 27.6549 49.3466 28.3224C50.0893 28.99 50.4606 29.9857 50.4606 31.3096C50.4606 32.6221 50.0893 33.6121 49.3466 34.2797C48.615 34.936 47.4559 35.2641 45.8692 35.2641H44.2656V38.0136C44.2656 38.3078 44.1981 38.5228 44.0631 38.6586C43.928 38.7943 43.6973 38.8623 43.371 38.8623H41.7336ZM45.5992 32.8031C46.0606 32.8031 46.4151 32.6787 46.6626 32.4297C46.9214 32.1808 47.0508 31.8074 47.0508 31.3096C47.0508 30.8004 46.9214 30.4213 46.6626 30.1724C46.4151 29.9235 46.0606 29.799 45.5992 29.799H44.2656V32.8031H45.5992Z" fill="#EFEFE5"/>
<path d="M54.4468 39.1166C53.3891 39.1166 52.5395 38.7771 51.898 38.0983C51.2678 37.408 50.9527 36.4407 50.9527 35.1959C50.9527 34.2455 51.1666 33.4138 51.5941 32.7011C52.0331 31.9882 52.6464 31.4394 53.4341 31.0547C54.2331 30.6587 55.1502 30.4607 56.1855 30.4607C57.0408 30.4607 57.7948 30.5569 58.4475 30.7492C59.1114 30.9303 59.7191 31.1962 60.2705 31.5469V38.3359C60.2705 38.5509 60.2312 38.6923 60.1523 38.7601C60.0735 38.8281 59.916 38.862 59.6797 38.862H57.9579C57.8341 38.862 57.7385 38.8451 57.671 38.811C57.6034 38.7659 57.5472 38.6979 57.5022 38.6074L57.2827 38.0983C56.9564 38.449 56.5626 38.7036 56.1012 38.862C55.6511 39.0318 55.0996 39.1166 54.4468 39.1166ZM55.7129 36.8083C56.1518 36.8083 56.495 36.7008 56.7425 36.4859C56.9901 36.2709 57.1139 35.9654 57.1139 35.5693V32.9217C56.9002 32.8199 56.63 32.7689 56.3037 32.7689C55.7072 32.7689 55.229 32.9783 54.8689 33.3969C54.52 33.8155 54.3456 34.4039 54.3456 35.162C54.3456 36.2596 54.8013 36.8083 55.7129 36.8083Z" fill="#EFEFE5"/>
<path d="M62.6195 38.862C62.2931 38.862 62.0624 38.7941 61.9274 38.6584C61.7924 38.5226 61.7249 38.3076 61.7249 38.0134V31.2414C61.7249 31.0378 61.7586 30.902 61.8261 30.8341C61.9049 30.7549 62.0624 30.7153 62.2988 30.7153H64.0374C64.1724 30.7153 64.2737 30.7379 64.3412 30.7832C64.42 30.8171 64.465 30.885 64.4763 30.9869L64.5606 31.496C64.8758 31.1792 65.2866 30.9303 65.7929 30.7492C66.3106 30.5569 66.8845 30.4607 67.5147 30.4607C68.4262 30.4607 69.1633 30.7209 69.7259 31.2414C70.2886 31.7506 70.5699 32.5087 70.5699 33.5157V38.0134C70.5699 38.3076 70.5025 38.5226 70.3674 38.6584C70.2436 38.7941 70.0185 38.862 69.6922 38.862H68.0548C67.7285 38.862 67.4922 38.7941 67.3459 38.6584C67.2108 38.5226 67.1433 38.3076 67.1433 38.0134V33.7363C67.1433 33.3969 67.0701 33.1537 66.9239 33.0066C66.7776 32.8595 66.5469 32.7859 66.2318 32.7859C65.8942 32.7859 65.6241 32.8764 65.4215 33.0574C65.2303 33.2385 65.1346 33.4874 65.1346 33.8043V38.0134C65.1346 38.3076 65.067 38.5226 64.9321 38.6584C64.8083 38.7941 64.5832 38.862 64.2569 38.862H62.6195Z" fill="#EFEFE5"/>
<path d="M76.5369 39.1166C74.9615 39.1166 73.7461 38.7488 72.8908 38.0134C72.0356 37.278 71.6079 36.2087 71.6079 34.8056C71.6079 33.9457 71.8049 33.1876 72.1987 32.5313C72.5926 31.8751 73.1609 31.3659 73.9036 31.0038C74.6576 30.6417 75.5466 30.4607 76.5706 30.4607C77.3471 30.4607 77.9999 30.5343 78.5287 30.6814C79.0689 30.8284 79.5472 31.0547 79.9635 31.3602C80.0873 31.4394 80.1492 31.5413 80.1492 31.6657C80.1492 31.7563 80.1042 31.8751 80.0141 32.0222L79.3221 33.2272C79.2433 33.3856 79.1477 33.4648 79.0351 33.4648C78.9676 33.4648 78.8607 33.4196 78.7144 33.329C78.4105 33.1367 78.1236 32.9952 77.8535 32.9047C77.5947 32.8142 77.2683 32.7689 76.8745 32.7689C76.3118 32.7689 75.8561 32.95 75.5072 33.3121C75.1696 33.6741 75.0008 34.172 75.0008 34.8056C75.0008 35.4506 75.1752 35.9484 75.5241 36.2991C75.873 36.6386 76.3512 36.8083 76.9589 36.8083C77.3189 36.8083 77.6454 36.7574 77.938 36.6556C78.2306 36.5538 78.5287 36.4124 78.8326 36.2313C78.9901 36.1407 79.1026 36.0955 79.1702 36.0955C79.2714 36.0955 79.3615 36.1747 79.4402 36.3332L80.1998 37.64C80.2561 37.7531 80.2843 37.8437 80.2843 37.9115C80.2843 38.0134 80.2167 38.1095 80.0817 38.2001C79.6091 38.5056 79.0913 38.7318 78.5287 38.879C77.9773 39.0374 77.3133 39.1166 76.5369 39.1166Z" fill="#EFEFE5"/>
<path d="M84.5639 39.1166C83.506 39.1166 82.6564 38.7771 82.015 38.0983C81.3848 37.408 81.0697 36.4407 81.0697 35.1959C81.0697 34.2455 81.2835 33.4138 81.7112 32.7011C82.15 31.9882 82.7633 31.4394 83.551 31.0547C84.3501 30.6587 85.2673 30.4607 86.3026 30.4607C87.1578 30.4607 87.9117 30.5569 88.5644 30.7492C89.2283 30.9303 89.8361 31.1962 90.3875 31.5469V38.3359C90.3875 38.5509 90.3481 38.6923 90.2693 38.7601C90.1906 38.8281 90.0331 38.862 89.7967 38.862H88.075C87.9512 38.862 87.8554 38.8451 87.788 38.811C87.7205 38.7659 87.6642 38.6979 87.6192 38.6074L87.3997 38.0983C87.0734 38.449 86.6795 38.7036 86.2181 38.862C85.768 39.0318 85.2165 39.1166 84.5639 39.1166ZM85.8299 36.8083C86.2688 36.8083 86.612 36.7008 86.8596 36.4859C87.1071 36.2709 87.2309 35.9654 87.2309 35.5693V32.9217C87.0171 32.8199 86.7471 32.7689 86.4206 32.7689C85.8243 32.7689 85.346 32.9783 84.9858 33.3969C84.6371 33.8155 84.4626 34.4039 84.4626 35.162C84.4626 36.2596 84.9184 36.8083 85.8299 36.8083Z" fill="#EFEFE5"/>
<path d="M100.991 38.2173C101.07 38.3078 101.109 38.4097 101.109 38.5228C101.109 38.6246 101.075 38.7095 101.008 38.7773C100.94 38.834 100.85 38.8623 100.738 38.8623H98.1214C97.9639 38.8623 97.8456 38.8509 97.7669 38.8283C97.6994 38.7943 97.6262 38.7321 97.5475 38.6416L95.2518 35.5017V38.0136C95.2518 38.3078 95.1843 38.5228 95.0492 38.6586C94.9142 38.7943 94.6835 38.8623 94.3571 38.8623H92.7198C92.3935 38.8623 92.1628 38.7943 92.0277 38.6586C91.9039 38.5228 91.842 38.3078 91.842 38.0136V28.1867C91.842 27.8925 91.9095 27.6775 92.0446 27.5417C92.1796 27.3946 92.4047 27.3211 92.7198 27.3211H94.3571C94.6835 27.3211 94.9142 27.3946 95.0492 27.5417C95.1843 27.6775 95.2518 27.8925 95.2518 28.1867V33.8724L97.48 30.9531C97.5475 30.8626 97.6207 30.8004 97.6994 30.7664C97.7782 30.7325 97.8964 30.7155 98.0539 30.7155H100.67C100.783 30.7155 100.867 30.7495 100.923 30.8174C100.991 30.8739 101.025 30.9531 101.025 31.055C101.025 31.1681 100.985 31.27 100.907 31.3605L98.0202 34.6871L100.991 38.2173Z" fill="#EFEFE5"/>
<path d="M106.472 39.1166C105.527 39.1166 104.683 38.9582 103.94 38.6414C103.209 38.3245 102.629 37.8493 102.201 37.2157C101.774 36.5821 101.56 35.807 101.56 34.8905C101.56 33.4535 101.965 32.356 102.775 31.5979C103.586 30.8398 104.75 30.4607 106.27 30.4607C107.755 30.4607 108.88 30.8341 109.646 31.5809C110.422 32.3163 110.81 33.3404 110.81 34.6528C110.81 35.2186 110.563 35.5015 110.068 35.5015H104.767C104.767 35.988 104.947 36.3615 105.307 36.6216C105.679 36.8819 106.236 37.012 106.978 37.012C107.44 37.012 107.823 36.9724 108.126 36.8932C108.441 36.8027 108.757 36.6726 109.072 36.5029C109.207 36.4463 109.297 36.418 109.342 36.418C109.443 36.418 109.527 36.4859 109.595 36.6216L110.169 37.7078C110.225 37.8211 110.253 37.9059 110.253 37.9625C110.253 38.0643 110.186 38.1605 110.051 38.251C109.589 38.5565 109.066 38.7771 108.481 38.9129C107.896 39.0487 107.226 39.1166 106.472 39.1166ZM107.772 33.8213C107.772 33.3913 107.648 33.0574 107.401 32.8199C107.153 32.5823 106.782 32.4634 106.286 32.4634C105.791 32.4634 105.414 32.5879 105.155 32.8368C104.897 33.0745 104.767 33.4026 104.767 33.8213H107.772Z" fill="#EFEFE5"/>
<path d="M116.596 39.1169C115.65 39.1169 114.756 39.0207 113.912 38.8284C113.068 38.6247 112.387 38.3418 111.869 37.9798C111.678 37.8553 111.582 37.7251 111.582 37.5895C111.582 37.4989 111.616 37.4028 111.684 37.3009L112.511 35.9771C112.601 35.8413 112.691 35.7734 112.781 35.7734C112.837 35.7734 112.933 35.813 113.068 35.8922C113.484 36.1298 113.957 36.3222 114.486 36.4692C115.015 36.6163 115.538 36.6899 116.056 36.6899C116.584 36.6899 116.973 36.6107 117.22 36.4522C117.479 36.2939 117.608 36.0393 117.608 35.6885C117.608 35.3491 117.468 35.0832 117.186 34.8909C116.916 34.6984 116.404 34.4552 115.65 34.1611C114.514 33.7311 113.625 33.2502 112.983 32.7184C112.353 32.1753 112.038 31.4398 112.038 30.512C112.038 29.3918 112.438 28.5375 113.237 27.9491C114.036 27.3608 115.099 27.0666 116.427 27.0666C117.35 27.0666 118.137 27.1514 118.79 27.3212C119.454 27.4796 120.017 27.7285 120.478 28.068C120.669 28.215 120.765 28.3508 120.765 28.4753C120.765 28.5545 120.731 28.645 120.664 28.7468L119.837 30.0707C119.735 30.2065 119.645 30.2744 119.566 30.2744C119.51 30.2744 119.415 30.2347 119.28 30.1555C118.627 29.7256 117.85 29.5106 116.95 29.5106C116.466 29.5106 116.095 29.5898 115.836 29.7482C115.577 29.9066 115.448 30.1669 115.448 30.5289C115.448 30.7779 115.515 30.9815 115.65 31.1399C115.785 31.2983 115.965 31.4398 116.19 31.5642C116.427 31.6774 116.787 31.8245 117.271 32.0055L117.592 32.1243C118.424 32.4525 119.077 32.7693 119.55 33.0748C120.034 33.3689 120.399 33.7367 120.647 34.178C120.894 34.6079 121.018 35.151 121.018 35.8074C121.018 36.8144 120.641 37.6178 119.887 38.2174C119.145 38.8171 118.047 39.1169 116.596 39.1169Z" fill="#EFEFE5"/>
<path d="M124.605 38.8623C124.436 38.8623 124.307 38.834 124.217 38.7774C124.127 38.7209 124.059 38.6077 124.014 38.4379L121.837 31.1059C121.814 31.0381 121.803 30.9871 121.803 30.9532C121.803 30.7948 121.915 30.7156 122.14 30.7156H124.368C124.515 30.7156 124.621 30.7439 124.689 30.8004C124.757 30.8457 124.802 30.9249 124.824 31.038L125.735 34.8908L126.883 31.7848C126.94 31.6491 126.996 31.5585 127.052 31.5133C127.12 31.4567 127.233 31.4284 127.391 31.4284H128.453C128.611 31.4284 128.718 31.4567 128.774 31.5133C128.842 31.5585 128.903 31.6491 128.96 31.7848L130.091 34.8908L131.02 31.038C131.053 30.9249 131.098 30.8457 131.155 30.8004C131.21 30.7439 131.312 30.7156 131.458 30.7156H133.704C133.928 30.7156 134.041 30.7948 134.041 30.9532C134.041 30.9871 134.03 31.0381 134.007 31.1059L131.813 38.4379C131.768 38.6077 131.7 38.7209 131.61 38.7774C131.531 38.834 131.408 38.8623 131.239 38.8623H129.585C129.427 38.8623 129.309 38.834 129.23 38.7774C129.151 38.7095 129.084 38.5964 129.027 38.4379L127.913 35.366L126.799 38.4379C126.754 38.5964 126.686 38.7095 126.596 38.7774C126.518 38.834 126.4 38.8623 126.243 38.8623H124.605Z" fill="#EFEFE5"/>
<path d="M138.32 39.1166C137.262 39.1166 136.413 38.7771 135.771 38.0983C135.141 37.408 134.825 36.4407 134.825 35.1959C134.825 34.2455 135.039 33.4138 135.467 32.7011C135.905 31.9882 136.519 31.4394 137.307 31.0547C138.106 30.6587 139.023 30.4607 140.058 30.4607C140.914 30.4607 141.667 30.5569 142.32 30.7492C142.984 30.9303 143.592 31.1962 144.143 31.5469V38.3359C144.143 38.5509 144.104 38.6923 144.025 38.7601C143.946 38.8281 143.789 38.862 143.553 38.862H141.831C141.707 38.862 141.612 38.8451 141.544 38.811C141.476 38.7659 141.42 38.6979 141.375 38.6074L141.156 38.0983C140.829 38.449 140.435 38.7036 139.974 38.862C139.524 39.0318 138.973 39.1166 138.32 39.1166ZM139.586 36.8083C140.024 36.8083 140.368 36.7008 140.616 36.4859C140.863 36.2709 140.987 35.9654 140.987 35.5693V32.9217C140.772 32.8199 140.503 32.7689 140.177 32.7689C139.58 32.7689 139.102 32.9783 138.742 33.3969C138.393 33.8155 138.218 34.4039 138.218 35.162C138.218 36.2596 138.675 36.8083 139.586 36.8083Z" fill="#EFEFE5"/>
<path d="M146.475 42.2904C146.149 42.2904 145.919 42.2226 145.783 42.0868C145.659 41.951 145.598 41.736 145.598 41.4418V31.7167C146.104 31.3546 146.74 31.0547 147.505 30.8171C148.271 30.5795 149.069 30.4607 149.902 30.4607C153.301 30.4607 155 31.909 155 34.8056C155 36.1182 154.64 37.1647 153.92 37.9455C153.199 38.7262 152.181 39.1166 150.865 39.1166C150.493 39.1166 150.133 39.0713 149.784 38.9808C149.446 38.8903 149.165 38.7659 148.94 38.6074V41.4418C148.94 41.736 148.872 41.951 148.737 42.0868C148.603 42.2226 148.372 42.2904 148.045 42.2904H146.475ZM150.138 36.8253C150.623 36.8253 150.983 36.6443 151.219 36.2822C151.466 35.9088 151.59 35.4109 151.59 34.7886C151.59 34.0532 151.444 33.5383 151.152 33.2441C150.87 32.9387 150.431 32.7859 149.835 32.7859C149.452 32.7859 149.148 32.8368 148.924 32.9387V35.6373C148.924 36.022 149.03 36.3162 149.243 36.5199C149.458 36.7235 149.756 36.8253 150.138 36.8253Z" fill="#EFEFE5"/>
<path fill-rule="evenodd" clip-rule="evenodd" d="M17.7877 41.7152C19.5875 43.101 22.1635 43.8726 25.3614 43.875H25.3774C28.5752 43.8726 31.1512 43.101 32.951 41.7152C34.7725 40.3128 35.7387 38.3225 35.7387 36.0704C35.7387 33.9005 34.7746 32.3359 33.6836 31.2782C32.8288 30.4494 31.8853 29.9185 31.2283 29.6132C31.3769 29.1548 31.5622 28.5546 31.7281 27.9348C31.9499 27.1054 32.1677 26.1322 32.1677 25.4191C32.1677 24.5751 31.9846 23.7274 31.4911 23.0687C30.9697 22.3728 30.1848 22 29.2404 22C28.5025 22 27.876 22.2752 27.3854 22.7501C26.9165 23.204 26.6045 23.8067 26.389 24.435C26.0103 25.5391 25.863 26.9263 25.8216 28.3105H24.9171C24.8758 26.9263 24.7283 25.5391 24.3497 24.435C24.1343 23.8067 23.8222 23.204 23.3533 22.7501C22.8628 22.2752 22.2362 22 21.4982 22C20.5539 22 19.769 22.3728 19.2476 23.0687C18.7541 23.7274 18.5711 24.5751 18.5711 25.4191C18.5711 26.1322 18.7888 27.1054 19.0107 27.9348C19.1765 28.5546 19.3618 29.1548 19.5104 29.6132C18.8534 29.9185 17.91 30.4494 17.0551 31.2782C15.9641 32.3359 15 33.9005 15 36.0704C15 38.3225 15.9663 40.3128 17.7877 41.7152ZM21.7617 36.6132C22.376 36.6132 22.874 36.0558 22.874 34.9854C22.874 33.9151 22.376 33.3576 21.7617 33.3576C21.1474 33.3576 20.6494 33.9151 20.6494 34.9854C20.6494 36.0558 21.1474 36.6132 21.7617 36.6132ZM28.9917 36.6132C29.6061 36.6132 30.104 36.0558 30.104 34.9854C30.104 33.9151 29.6061 33.3576 28.9917 33.3576C28.3774 33.3576 27.8794 33.9151 27.8794 34.9854C27.8794 36.0558 28.3774 36.6132 28.9917 36.6132Z" fill="#EFEFE5"/>
</g>
</svg>
