<svg width="151" height="36" viewBox="0 0 151 36" fill="none" xmlns="http://www.w3.org/2000/svg">
<mask id="mask0_4413_29056" style="mask-type:luminance" maskUnits="userSpaceOnUse" x="0" y="0" width="151" height="36">
<path d="M151 0.00291443H0V35.9971H151V0.00291443Z" fill="white"/>
</mask>
<g mask="url(#mask0_4413_29056)">
<path fill-rule="evenodd" clip-rule="evenodd" d="M31.1294 5.52874L31.3188 6.67379C31.4681 7.73901 31.5372 8.81393 31.5257 9.88951C31.5244 12.2664 31.2377 14.6344 30.6716 16.9429C29.9061 20.0792 28.5727 23.0487 26.7376 25.7045C24.6169 28.7547 21.5505 31.7547 17.081 34.1652L16.5341 34.4599L15.9874 34.1652C11.5178 31.7547 8.45273 28.7547 6.3308 25.7045C4.49561 23.0487 3.16225 20.0792 2.39668 16.9429C1.83073 14.6349 1.54399 12.2672 1.54264 9.89077C1.53108 8.81518 1.60025 7.74026 1.74957 6.67505L1.93893 5.52999C1.95509 5.43661 1.95262 5.34095 1.93165 5.24853C1.91068 5.15611 1.87163 5.06875 1.81674 4.99149C1.76186 4.91423 1.69223 4.84859 1.61186 4.79837C1.5315 4.74814 1.44199 4.71432 1.34849 4.69885C1.255 4.68337 1.15937 4.68656 1.06711 4.70822C0.974845 4.72987 0.887787 4.76958 0.810941 4.82504C0.734094 4.88049 0.668982 4.95061 0.619357 5.03135C0.569732 5.11209 0.536574 5.20185 0.521796 5.29546L0.332427 6.44052C0.169543 7.58319 0.0936606 8.73658 0.105434 9.89077C0.106337 12.3843 0.40697 14.8686 1.00086 17.2904C1.80929 20.5975 3.21663 23.7285 5.15319 26.5285C7.39177 29.7505 10.6386 32.9186 15.3114 35.4331L16.1993 35.911C16.3039 35.9676 16.4209 35.9972 16.5398 35.9972C16.6587 35.9972 16.7757 35.9676 16.8803 35.911L17.7669 35.4331C22.4347 32.9173 25.6829 29.7505 27.9252 26.5285C29.8608 23.7287 31.2673 20.5981 32.075 17.2916C32.6689 14.8698 32.9695 12.3855 32.9704 9.89203C32.9822 8.73783 32.9062 7.58445 32.7435 6.44178L32.554 5.29672C32.5393 5.2031 32.5061 5.11334 32.4565 5.0326C32.4069 4.95186 32.3418 4.88174 32.2649 4.82629C32.1881 4.77083 32.101 4.73113 32.0087 4.70947C31.9165 4.68781 31.8208 4.68463 31.7274 4.7001C31.6339 4.71558 31.5443 4.74939 31.464 4.79962C31.3836 4.84984 31.314 4.91548 31.2592 4.99274C31.2043 5.07 31.1652 5.15736 31.1442 5.24978C31.1233 5.34221 31.1208 5.43786 31.137 5.53125L31.1294 5.52874Z" fill="white"/>
<path fill-rule="evenodd" clip-rule="evenodd" d="M5.86311 4.74866L16.5358 1.48784L27.4468 4.8189C27.6295 4.87351 27.8264 4.85353 27.9944 4.76334C28.1623 4.67315 28.2878 4.52009 28.3431 4.33766C28.3985 4.15522 28.3794 3.95828 28.2899 3.78991C28.2005 3.62155 28.048 3.49549 27.8657 3.43932L16.7452 0.0443095C16.6088 0.00248277 16.4629 0.00248277 16.3264 0.0443095L5.44298 3.36658C5.35202 3.39377 5.26735 3.43866 5.19378 3.49866C5.12023 3.55867 5.05926 3.63261 5.01434 3.71624C4.96944 3.79988 4.9415 3.89156 4.93212 3.98602C4.92274 4.08049 4.93211 4.17587 4.95969 4.2667C4.98727 4.35754 5.03251 4.44203 5.09283 4.51533C5.15315 4.58863 5.22735 4.64929 5.31118 4.69384C5.395 4.73839 5.4868 4.76594 5.5813 4.77492C5.6758 4.78389 5.77115 4.77412 5.86186 4.74615L5.86311 4.74866Z" fill="white"/>
<path fill-rule="evenodd" clip-rule="evenodd" d="M0.593104 5.73943L15.8942 35.6037C15.9538 35.7204 16.0443 35.8186 16.1558 35.8875C16.2673 35.9564 16.3956 35.9935 16.5267 35.9946C16.6577 35.9958 16.7865 35.9611 16.8993 35.8941C17.012 35.8272 17.1042 35.7306 17.1659 35.615L26.4971 18.1632L26.5108 18.1357L32.4833 5.71937C32.5642 5.54802 32.5743 5.35164 32.5112 5.17293C32.4482 4.99422 32.3172 4.8476 32.1466 4.76498C31.9761 4.68236 31.7798 4.67038 31.6005 4.73167C31.4211 4.79296 31.2733 4.92255 31.189 5.09228L25.2265 17.4985L16.5551 33.7274L1.87112 5.08224C1.8288 4.9972 1.77003 4.92138 1.69819 4.85921C1.62637 4.79704 1.54291 4.74974 1.45267 4.72005C1.36243 4.69036 1.2672 4.67887 1.17248 4.68625C1.07777 4.69364 0.985463 4.71974 0.900913 4.76305C0.816359 4.80636 0.741243 4.86603 0.679915 4.93858C0.618587 5.01113 0.572266 5.09513 0.543636 5.18571C0.515007 5.2763 0.504637 5.37165 0.513128 5.46627C0.52162 5.56089 0.548803 5.65288 0.593104 5.73692V5.73943Z" fill="white"/>
<path fill-rule="evenodd" clip-rule="evenodd" d="M7.91759 19.0392H24.9327C25.1231 19.0392 25.3057 18.9637 25.4404 18.8289C25.575 18.6943 25.6507 18.5117 25.6507 18.3212C25.6507 18.1308 25.575 17.9483 25.4404 17.8136C25.3057 17.6789 25.1231 17.6033 24.9327 17.6033H7.91759C7.72716 17.6033 7.54454 17.6789 7.40988 17.8136C7.27524 17.9483 7.19958 18.1308 7.19958 18.3212C7.19958 18.5117 7.27524 18.6943 7.40988 18.8289C7.54454 18.9637 7.72716 19.0392 7.91759 19.0392ZM55.3772 12.8437H44.3081C44.1168 12.8447 43.9336 12.9212 43.7983 13.0565C43.6631 13.1917 43.5867 13.3748 43.5857 13.5661V22.4506C43.587 22.6417 43.6635 22.8247 43.7987 22.9599C43.9339 23.0952 44.1169 23.1716 44.3081 23.173H55.3772V24.6779H44.3081C44.016 24.6793 43.7266 24.6227 43.4565 24.5116C43.1864 24.4004 42.941 24.2369 42.7345 24.0304C42.528 23.8239 42.3645 23.5785 42.2533 23.3084C42.1422 23.0383 42.0856 22.7489 42.087 22.4569V13.5724C42.0856 13.2804 42.1422 12.991 42.2533 12.7209C42.3645 12.4508 42.528 12.2054 42.7345 11.9989C42.941 11.7924 43.1864 11.6289 43.4565 11.5177C43.7266 11.4065 44.016 11.35 44.3081 11.3513H55.3772V12.8437ZM76.1623 11.3438V12.8488H65.502V17.2471H74.0703V18.7646H65.5007V23.1705H76.161V24.6755H63.9957V11.3438H76.1623Z" fill="white"/>
<path d="M98.1137 13.5837V17.4892C98.1155 17.7812 98.0588 18.0705 97.9473 18.3405C97.8357 18.6105 97.6728 18.8559 97.4658 19.0623C97.2598 19.2688 97.0141 19.4323 96.7442 19.5435C96.4742 19.6548 96.1844 19.7114 95.8929 19.7103H93.8574L98.0399 24.6704H96.0594L91.8948 19.7103H87.0034C86.7615 19.6979 86.5204 19.6733 86.281 19.6363V24.6704H84.776V11.3626H95.8812C96.1736 11.3614 96.4625 11.4181 96.7325 11.5293C97.0033 11.6406 97.2481 11.8041 97.455 12.0106C97.6611 12.2171 97.8249 12.4624 97.9356 12.7324C98.0471 13.0024 98.1038 13.2917 98.1029 13.5837H98.1137ZM87.0085 18.1928H95.8929C95.9856 18.1939 96.0774 18.1766 96.1637 18.1416C96.2492 18.1066 96.3275 18.0549 96.3932 17.9893C96.4589 17.9237 96.5102 17.8457 96.5453 17.7598C96.5804 17.6739 96.5975 17.5818 96.5966 17.4892V13.5837C96.5975 13.4897 96.5804 13.3962 96.5462 13.3088C96.5111 13.2214 96.4589 13.1418 96.3932 13.0746C96.3293 13.0057 96.2519 12.9511 96.1655 12.9144C96.0792 12.8776 95.9856 12.8596 95.892 12.8613H87.0072C86.8159 12.8623 86.6328 12.9388 86.4974 13.074C86.3622 13.2093 86.2858 13.3925 86.2848 13.5837V17.4892C86.2828 17.5831 86.3008 17.6763 86.3376 17.7628C86.3743 17.8493 86.429 17.927 86.498 17.9908C86.5654 18.0567 86.6452 18.1085 86.7328 18.1432C86.8205 18.1779 86.9141 18.1947 87.0085 18.1928Z" fill="white"/>
<path fill-rule="evenodd" clip-rule="evenodd" d="M106.074 11.3438H119.395V12.8488H113.501V24.6766H111.996V12.8488H106.074V11.3438ZM127.47 24.6704V11.3438H128.975V24.6704H127.47ZM148.977 11.3438H150.903L145.332 18.0071L150.921 24.6704H148.977L144.017 18.7659H139.723V24.6704H138.208V11.3438H139.726V17.2471H144.02L148.977 11.3438Z" fill="white"/>
</g>
</svg>
