<svg width="400" height="100" viewBox="0 0 824 100" fill="none" xmlns="http://www.w3.org/2000/svg">
<path d="M1.48901 39.7428C1.48901 19.4854 18.4634 3.06997 38.7208 3.06997C49.8974 3.06997 57.8606 7.47071 63.868 13.1986L56.743 20.2538C52.4819 16.2023 46.6841 13.0589 38.7208 13.0589C23.9818 13.0589 12.456 24.9339 12.456 39.6729C12.456 54.4119 23.9818 66.2869 38.7208 66.2869C48.2907 66.2869 53.7393 62.445 57.232 58.9523C60.0959 56.0884 61.982 51.967 62.6805 46.3788H38.7208V36.3898H72.46C72.8092 38.206 73.0188 40.3016 73.0188 42.6766C73.0188 50.2207 70.9931 59.5111 64.357 66.0773C57.8606 72.7832 49.6179 76.3457 38.7208 76.3457C18.4634 76.3457 1.48901 59.9303 1.48901 39.7428Z" fill="white"/>
<path d="M100.192 29.1954C87.1292 29.1954 76.5115 39.1145 76.5115 52.8057C76.5115 66.427 87.1292 76.416 100.192 76.416C113.254 76.416 123.872 66.427 123.872 52.8057C123.872 39.1145 113.254 29.1954 100.192 29.1954ZM100.192 67.0557C93.0667 67.0557 86.8498 61.1881 86.8498 52.7359C86.8498 44.2138 92.9969 38.416 100.192 38.416C107.317 38.416 113.534 44.2138 113.534 52.7359C113.534 61.1881 107.317 67.0557 100.192 67.0557Z" fill="white"/>
<path d="M151.883 29.1954C138.821 29.1954 128.203 39.1145 128.203 52.8057C128.203 66.427 138.821 76.416 151.883 76.416C164.946 76.416 175.563 66.427 175.563 52.8057C175.563 39.1145 164.946 29.1954 151.883 29.1954ZM151.883 67.0557C144.758 67.0557 138.541 61.1881 138.541 52.7359C138.541 44.2138 144.688 38.416 151.883 38.416C159.078 38.416 165.225 44.2138 165.225 52.7359C165.225 61.1881 159.008 67.0557 151.883 67.0557Z" fill="white"/>
<path d="M215.31 30.5911V34.433H214.961C212.655 31.6389 208.185 29.1242 202.527 29.1242C190.722 29.1242 179.894 39.4624 179.894 52.8043C179.894 66.0066 190.722 76.3448 202.527 76.3448C208.185 76.3448 212.655 73.8301 214.961 70.9661H215.31V74.3889C215.31 83.3999 210.49 88.2198 202.736 88.2198C196.38 88.2198 192.468 83.6793 190.861 79.8374L181.85 83.6095C184.435 89.8963 191.35 97.5801 202.806 97.5801C214.961 97.5801 225.229 90.4551 225.229 72.9918V30.5911H215.31ZM203.435 67.0543C196.31 67.0543 190.302 61.047 190.302 52.8043C190.302 44.4918 196.31 38.4146 203.435 38.4146C210.49 38.4146 216.008 44.4918 216.008 52.8043C216.078 61.1168 210.49 67.0543 203.435 67.0543Z" fill="white"/>
<path d="M242.692 74.9492H232.354V5.58524H242.692V74.9492Z" fill="white"/>
<path d="M271.123 67.0557C265.814 67.0557 262.112 64.6109 259.667 59.9307L291.24 46.8682L290.193 44.2138C288.237 38.905 282.229 29.1954 270.005 29.1954C257.851 29.1954 247.722 38.7653 247.722 52.8057C247.722 66.0079 257.711 76.416 271.123 76.416C281.95 76.416 288.167 69.78 290.821 65.9381L282.788 60.5594C280.064 64.4712 276.432 67.0557 271.123 67.0557ZM270.354 38.2763C274.476 38.2763 277.968 40.302 279.086 43.3057L257.99 52.0373C257.711 42.9565 265.045 38.2763 270.354 38.2763Z" fill="white"/>
<path d="M338.434 9.91016C341.461 9.91016 343.944 10.4248 345.882 11.4542L343.611 18.8113C342.158 18.0847 340.523 17.7214 338.706 17.7214C336.647 17.7214 334.952 18.448 333.62 19.9013C332.348 21.294 331.712 23.1711 331.712 25.5326V31.164H343.338V38.7936H331.712V75.6699H323.356V38.7936H315V31.164H323.356V24.7152C323.356 20.2949 324.749 16.7223 327.534 13.9974C330.38 11.2726 334.013 9.91016 338.434 9.91016Z" fill="white" fill-opacity="0.541176"/>
<path d="M346.053 53.4172C346.053 46.5748 348.203 40.9131 352.502 36.4322C356.862 31.9514 362.342 29.7109 368.942 29.7109C375.542 29.7109 380.992 31.9514 385.291 36.4322C389.651 40.9131 391.831 46.5748 391.831 53.4172C391.831 60.3201 389.651 65.9817 385.291 70.4021C380.992 74.8829 375.542 77.1234 368.942 77.1234C362.342 77.1234 356.862 74.8829 352.502 70.4021C348.203 65.9212 346.053 60.2596 346.053 53.4172ZM354.41 53.4172C354.41 58.2008 355.802 62.0761 358.588 65.0432C361.373 68.0102 364.825 69.4938 368.942 69.4938C373.06 69.4938 376.511 68.0102 379.297 65.0432C382.082 62.0761 383.475 58.2008 383.475 53.4172C383.475 48.6941 382.082 44.849 379.297 41.8819C376.451 38.8543 372.999 37.3405 368.942 37.3405C364.885 37.3405 361.434 38.8543 358.588 41.8819C355.802 44.849 354.41 48.6941 354.41 53.4172Z" fill="white" fill-opacity="0.541176"/>
<path d="M406.979 75.6701H398.623V31.1642H406.616V38.4304H406.979C407.827 36.0689 409.553 34.0707 412.157 32.4358C414.821 30.7403 417.425 29.8926 419.968 29.8926C422.39 29.8926 424.449 30.2559 426.144 30.9825L423.601 39.0662C422.572 38.6424 420.937 38.4304 418.696 38.4304C415.548 38.4304 412.792 39.702 410.431 42.2452C408.13 44.7884 406.979 47.7555 406.979 51.1464V75.6701Z" fill="white" fill-opacity="0.541176"/>
<path d="M490.604 58.3218C490.604 64.0137 488.515 68.5854 484.337 72.0369C480.098 75.4278 474.951 77.1232 468.896 77.1232C463.507 77.1232 458.753 75.5489 454.636 72.4002C450.518 69.2515 447.672 64.9523 446.098 59.5025L454.091 56.2327C454.636 58.1704 455.393 59.9264 456.362 61.5008C457.33 63.0751 458.451 64.4376 459.722 65.5881C461.054 66.678 462.508 67.556 464.082 68.2221C465.656 68.8276 467.322 69.1304 469.078 69.1304C472.892 69.1304 476.011 68.1615 478.433 66.2238C480.855 64.2256 482.066 61.5916 482.066 58.3218C482.066 55.5969 481.067 53.2656 479.069 51.328C477.192 49.4509 473.68 47.6343 468.533 45.8783C463.325 44.0012 460.086 42.7296 458.814 42.0635C451.911 38.5515 448.46 33.3742 448.46 26.5318C448.46 21.7482 450.367 17.6609 454.182 14.27C458.057 10.8791 462.81 9.18359 468.442 9.18359C473.407 9.18359 477.706 10.4552 481.339 12.9984C484.973 15.481 487.395 18.5995 488.606 22.3537L480.794 25.6235C480.068 23.2014 478.615 21.2032 476.435 19.6289C474.315 17.9939 471.712 17.1765 468.623 17.1765C465.354 17.1765 462.599 18.0848 460.358 19.9013C458.118 21.5968 456.997 23.807 456.997 26.5318C456.997 28.7723 457.875 30.7099 459.631 32.3448C461.569 33.9797 465.778 35.9174 472.257 38.1579C478.857 40.3983 483.55 43.1534 486.335 46.4232C489.181 49.6325 490.604 53.5987 490.604 58.3218Z" fill="white" fill-opacity="0.541176"/>
<path d="M514.523 76.3959C510.89 76.3959 507.862 75.2756 505.44 73.0352C503.079 70.7948 501.868 67.6763 501.807 63.6799V38.7929H493.996V31.1633H501.807V17.5391H510.163V31.1633H521.063V38.7929H510.163V60.955C510.163 63.9221 510.739 65.9506 511.889 67.0405C513.04 68.0699 514.341 68.5846 515.795 68.5846C516.461 68.5846 517.097 68.5241 517.702 68.403C518.368 68.2213 518.974 68.0094 519.519 67.7672L522.153 75.2151C519.973 76.0023 517.43 76.3959 514.523 76.3959Z" fill="white" fill-opacity="0.541176"/>
<path d="M534.21 62.0458C534.21 64.2257 535.118 66.0423 536.935 67.4956C538.812 68.9488 540.992 69.6754 543.475 69.6754C546.987 69.6754 550.105 68.3736 552.83 65.7698C555.615 63.1661 557.008 60.1082 557.008 56.5961C554.404 54.5374 550.771 53.508 546.109 53.508C542.718 53.508 539.872 54.3254 537.571 55.9603C535.33 57.5953 534.21 59.6238 534.21 62.0458ZM545.019 29.7109C551.195 29.7109 556.069 31.3761 559.642 34.7065C563.215 37.9763 565.001 42.4875 565.001 48.2399V75.6701H557.008V69.4938H556.645C553.193 74.5802 548.591 77.1234 542.839 77.1234C537.934 77.1234 533.817 75.6701 530.486 72.7636C527.216 69.8571 525.581 66.224 525.581 61.8642C525.581 57.2622 527.307 53.5988 530.759 50.874C534.271 48.1491 538.933 46.7867 544.746 46.7867C549.712 46.7867 553.799 47.695 557.008 49.5115V47.6041C557.008 44.6976 555.858 42.2453 553.557 40.247C551.256 38.1883 548.561 37.1589 545.473 37.1589C540.81 37.1589 537.117 39.1268 534.392 43.0627L527.035 38.4305C531.092 32.6174 537.086 29.7109 545.019 29.7109Z" fill="white" fill-opacity="0.541176"/>
<path d="M626.561 76.3959C622.928 76.3959 619.901 75.2756 617.478 73.0352C615.117 70.7948 613.906 67.6763 613.845 63.6799V38.7929H606.034V31.1633H613.845V17.5391H622.202V31.1633H633.101V38.7929H622.202V60.955C622.202 63.9221 622.777 65.9506 623.927 67.0405C625.078 68.0699 626.38 68.5846 627.833 68.5846C628.499 68.5846 629.135 68.5241 629.74 68.403C630.406 68.2213 631.012 68.0094 631.557 67.7672L634.191 75.2151C632.011 76.0023 629.468 76.3959 626.561 76.3959ZM574.426 31.1633H582.419V38.4296H582.782C585.265 32.7377 590.381 29.8917 598.132 29.8917L599.858 30.0734V38.7929L596.134 38.4296C592.258 38.4296 589.049 39.6406 586.506 42.0627C584.023 44.4243 582.782 47.4519 582.782 51.1456V75.6692H574.426V31.1633Z" fill="white" fill-opacity="0.541176"/>
<path d="M680.184 75.67H672.191V69.4936H671.828C670.556 71.6735 668.588 73.4901 665.924 74.9434C663.32 76.3966 660.596 77.1232 657.75 77.1232C652.3 77.1232 648.091 75.5792 645.124 72.491C642.218 69.3423 640.765 64.8917 640.765 59.1392V31.1641H649.121V58.5942C649.303 65.8605 652.966 69.4936 660.111 69.4936C663.441 69.4936 666.227 68.1615 668.467 65.4972C670.708 62.7724 671.828 59.5328 671.828 55.7786V31.1641H680.184V75.67Z" fill="white" fill-opacity="0.541176"/>
<path d="M712.244 69.4938C716.24 69.4938 719.601 67.98 722.326 64.9524C725.051 61.9853 726.413 58.1402 726.413 53.4172C726.413 48.7546 725.051 44.9096 722.326 41.8819C719.601 38.8543 716.24 37.3405 712.244 37.3405C708.187 37.3405 704.796 38.8543 702.071 41.8819C699.407 44.9096 698.074 48.7546 698.074 53.4172C698.074 58.1402 699.407 62.0156 702.071 65.0432C704.796 68.0102 708.187 69.4938 712.244 69.4938ZM713.606 77.1234C710.336 77.1234 707.339 76.427 704.614 75.0343C701.95 73.6416 699.891 71.7948 698.438 69.4938H698.074L698.438 75.6701V95.2891H690.082V31.1642H698.074V37.3405H698.438C699.891 35.0395 701.95 33.1927 704.614 31.8C707.339 30.4073 710.336 29.7109 713.606 29.7109C719.48 29.7109 724.445 32.0119 728.502 36.6139C732.68 41.2764 734.769 46.8775 734.769 53.4172C734.769 60.0174 732.68 65.6184 728.502 70.2204C724.445 74.8224 719.48 77.1234 713.606 77.1234Z" fill="white" fill-opacity="0.541176"/>
<path d="M775.951 63.3175C775.951 67.1928 774.256 70.4626 770.865 73.1269C767.474 75.7912 763.205 77.1234 758.058 77.1234C753.577 77.1234 749.641 75.9729 746.25 73.6719C742.86 71.3104 740.437 68.2222 738.984 64.4074L746.432 61.2284C747.522 63.8927 749.096 65.9818 751.155 67.4956C753.275 68.9488 755.576 69.6754 758.058 69.6754C760.722 69.6754 762.933 69.1002 764.689 67.9497C766.505 66.7992 767.413 65.4368 767.413 63.8624C767.413 61.0165 765.234 58.9274 760.874 57.5953L753.244 55.6879C744.585 53.508 740.256 49.3299 740.256 43.1535C740.256 39.0965 741.891 35.857 745.161 33.4349C748.491 30.9523 752.73 29.7109 757.877 29.7109C761.812 29.7109 765.355 30.6495 768.503 32.5266C771.713 34.4037 773.953 36.9167 775.225 40.0654L767.777 43.1535C766.929 41.2764 765.536 39.8232 763.599 38.7938C761.722 37.7038 759.602 37.1589 757.241 37.1589C755.061 37.1589 753.093 37.7038 751.337 38.7938C749.641 39.8837 748.794 41.2159 748.794 42.7902C748.794 45.3334 751.186 47.15 755.969 48.2399L762.69 49.9657C771.531 52.1456 775.951 56.5962 775.951 63.3175Z" fill="white" fill-opacity="0.541176"/>
</svg>
