<svg width="147" height="56" viewBox="0 0 147 56" fill="none" xmlns="http://www.w3.org/2000/svg">
<g clip-path="url(#clip0_1627_1971)">
<mask id="mask0_1627_1971" style="mask-type:luminance" maskUnits="userSpaceOnUse" x="0" y="0" width="147" height="56">
<path d="M147 0H0V56H147V0Z" fill="white"/>
</mask>
<g mask="url(#mask0_1627_1971)">
<path d="M54.1653 28C54.1653 42.3594 42.5247 54 28.1653 54C13.8058 54 2.16528 42.3594 2.16528 28C2.16528 13.6406 13.8058 2 28.1653 2C42.5247 2 54.1653 13.6406 54.1653 28Z" stroke="white" stroke-width="4"/>
<path d="M37.7256 15.6277H18.6039C15.0881 15.6277 12.8598 19.4202 14.6285 22.4861L26.4297 42.9409C27.1998 44.2765 29.1297 44.2765 29.8998 42.9409L41.7034 22.4861C43.4698 19.4251 41.2414 15.6277 37.728 15.6277H37.7256ZM26.4201 36.8068L23.85 31.8327L17.6486 20.7414C17.2395 20.0315 17.7448 19.1218 18.6015 19.1218H26.4177V36.8092L26.4201 36.8068ZM38.6761 20.739L32.4771 31.8351L29.907 36.8068V19.1194H37.7232C38.5799 19.1194 39.0852 20.0291 38.6761 20.739Z" fill="#F9FDFF"/>
<path d="M73.8156 43.4675H80.087V21.5962H88.7585V15.6384H65.1438V21.5962H73.8156V43.4675Z" fill="white"/>
<path d="M103.831 43.9378C111.748 43.9378 118.216 37.4705 118.216 29.5529C118.216 21.6354 111.748 15.168 103.831 15.168C95.8739 15.168 89.4458 21.6354 89.4458 29.5529C89.4458 37.4705 95.8739 43.9378 103.831 43.9378ZM103.831 37.9016C99.2839 37.9016 95.7171 34.0604 95.7171 29.5529C95.7171 25.0454 99.2839 21.2042 103.831 21.2042C108.338 21.2042 111.905 25.0454 111.905 29.5529C111.905 34.0604 108.338 37.9016 103.831 37.9016Z" fill="white"/>
<path d="M146.835 43.4675V15.6384H140.563V32.8062L127.041 15.6384H121.671V43.4675H127.903V26.2605L141.465 43.4675H146.835Z" fill="white"/>
</g>
</g>
<defs>
<clipPath id="clip0_1627_1971">
<rect width="147" height="56" fill="white"/>
</clipPath>
</defs>
</svg>
